<?xml version="1.0" encoding="utf-8"?>
<!-- Generator: Adobe Illustrator 16.0.0, SVG Export Plug-In . SVG Version: 6.00 Build 0)  -->
<!DOCTYPE svg PUBLIC "-//W3C//DTD SVG 1.1//EN" "http://www.w3.org/Graphics/SVG/1.1/DTD/svg11.dtd">
<svg version="1.1" xmlns="http://www.w3.org/2000/svg" xmlns:xlink="http://www.w3.org/1999/xlink" x="0px" y="0px" width="1280px"
	 height="100px" viewBox="0 0 1280 100" enable-background="new 0 0 1280 100" xml:space="preserve">
<g id="Background">
	<rect fill="#A5D6A7" width="1280" height="100"/>
</g>
<g id="Shapes">
	<path fill="#4CAF50" d="M107.287,62.186c-21.623-21.334-34.644-48.81-34.644-78.797c0-67.887,66.696-122.917,148.97-122.917
		c82.274,0,148.97,55.031,148.97,122.917c0,67.883-66.696,122.917-148.97,122.917c-22.892,0-44.574-4.267-63.953-11.879
		c-37.467,4.681-80.384,15.546-80.384,15.546S92.322,87.716,107.287,62.186z"/>
	<path fill="#40C4FF" d="M1025.007,85.682c-13.958-13.771-22.363-31.508-22.363-50.865c0-43.822,43.054-79.346,96.163-79.346
		s96.163,35.523,96.163,79.346c0,43.82-43.054,79.346-96.163,79.346c-14.777,0-28.773-2.754-41.283-7.668
		c-24.186,3.021-51.89,10.035-51.89,10.035S1015.347,102.162,1025.007,85.682z"/>
	<path fill="#40C4FF" d="M557.605,79.682c13.958-13.771,22.363-31.508,22.363-50.865c0-43.822-43.054-79.346-96.162-79.346
		c-53.109,0-96.163,35.524-96.163,79.346c0,43.82,43.054,79.345,96.163,79.345c14.777,0,28.773-2.754,41.283-7.668
		c24.185,3.021,51.889,10.035,51.889,10.035S567.266,96.162,557.605,79.682z"/>
	<path fill="#40C4FF" d="M836.151,64.746c19.075-4.538,35.459-15.347,45.495-31.898c22.722-37.471,4.326-90.169-41.086-117.706
		c-45.413-27.537-100.646-19.484-123.367,17.987c-22.721,37.47-4.326,90.17,41.087,117.707
		c12.636,7.662,26.031,12.564,39.276,14.849c19.113,15.123,39.166,35.484,39.166,35.484S835.866,83.848,836.151,64.746z"/>
</g>
<g id="Shapes_2">
	<g>
		<path fill="#00B0FF" d="M371.563,88.142c11.494,3.805,23.606,3.446,34.25-1.992c24.094-12.31,31.533-45.96,16.615-75.162
			c-14.918-29.202-46.544-42.896-70.639-30.585c-24.093,12.309-31.532,45.96-16.615,75.161c4.151,8.125,9.597,15.047,15.812,20.547
			c5.134,14.146,9.06,31.348,9.06,31.348S365.216,98.083,371.563,88.142z"/>
		<g>
			<path fill="#FFFFFF" stroke="#FFFFFF" stroke-miterlimit="10" d="M358.821,23.413c0.343-0.175,0.698-0.278,1.066-0.308
				c0.367-0.029,0.719,0.008,1.055,0.111c0.335,0.103,0.646,0.272,0.934,0.508s0.518,0.525,0.693,0.869s0.274,0.7,0.298,1.072
				c0.023,0.37-0.021,0.725-0.13,1.064c-0.11,0.339-0.284,0.649-0.523,0.929c-0.24,0.28-0.532,0.509-0.875,0.684
				c-0.356,0.182-0.714,0.286-1.076,0.312c-0.36,0.027-0.711-0.015-1.05-0.125c-0.339-0.109-0.649-0.284-0.929-0.523
				c-0.281-0.241-0.509-0.531-0.684-0.875c-0.176-0.344-0.278-0.698-0.308-1.066c-0.03-0.368,0.011-0.717,0.125-1.049
				c0.113-0.332,0.286-0.637,0.519-0.915C358.17,23.824,358.464,23.595,358.821,23.413z M387.152,14.23l-11.322,5.784
				c-0.594,0.303-1.179,0.59-1.757,0.859c-0.578,0.271-1.164,0.533-1.757,0.787c-0.595,0.253-1.207,0.503-1.838,0.75
				c-0.631,0.249-1.31,0.507-2.036,0.779l-1.224-2.396c0.646-0.43,1.253-0.827,1.824-1.194c0.57-0.365,1.132-0.715,1.686-1.048
				c0.554-0.333,1.109-0.653,1.667-0.964c0.557-0.309,1.133-0.616,1.727-0.919l11.322-5.784L387.152,14.23z"/>
			<path fill="#FFFFFF" stroke="#FFFFFF" stroke-miterlimit="10" d="M365.757,36.991c0.343-0.176,0.699-0.278,1.066-0.309
				c0.368-0.03,0.719,0.009,1.055,0.11c0.335,0.104,0.647,0.273,0.934,0.509c0.287,0.237,0.518,0.525,0.693,0.869
				c0.176,0.343,0.274,0.7,0.298,1.071c0.023,0.369-0.02,0.726-0.13,1.064c-0.11,0.34-0.284,0.648-0.523,0.929
				c-0.24,0.28-0.532,0.508-0.875,0.684c-0.356,0.182-0.714,0.286-1.076,0.313c-0.36,0.026-0.711-0.015-1.05-0.125
				c-0.339-0.109-0.649-0.285-0.929-0.522c-0.281-0.241-0.509-0.532-0.684-0.875c-0.176-0.344-0.278-0.698-0.308-1.065
				c-0.03-0.368,0.012-0.718,0.125-1.051c0.113-0.331,0.286-0.638,0.519-0.914S365.401,37.173,365.757,36.991z M394.088,27.808
				l-11.322,5.784c-0.594,0.303-1.179,0.591-1.757,0.86c-0.578,0.271-1.163,0.532-1.757,0.786c-0.595,0.253-1.207,0.504-1.838,0.752
				c-0.631,0.247-1.31,0.506-2.036,0.777l-1.224-2.395c0.645-0.43,1.253-0.828,1.824-1.193c0.57-0.367,1.132-0.716,1.686-1.049
				c0.554-0.332,1.109-0.654,1.667-0.964c0.557-0.311,1.133-0.616,1.727-0.92l11.322-5.784L394.088,27.808z"/>
			<path fill="#FFFFFF" stroke="#FFFFFF" stroke-miterlimit="10" d="M372.694,50.568c0.343-0.176,0.699-0.278,1.066-0.308
				c0.368-0.03,0.719,0.007,1.055,0.11c0.335,0.104,0.646,0.273,0.934,0.508c0.286,0.236,0.518,0.526,0.692,0.869
				c0.176,0.344,0.274,0.701,0.299,1.071c0.022,0.37-0.021,0.727-0.13,1.065c-0.11,0.338-0.285,0.647-0.524,0.929
				c-0.24,0.28-0.531,0.508-0.874,0.684c-0.356,0.182-0.715,0.286-1.076,0.313c-0.36,0.026-0.711-0.016-1.049-0.125
				c-0.339-0.109-0.649-0.285-0.929-0.523c-0.281-0.24-0.509-0.531-0.684-0.875c-0.176-0.343-0.278-0.698-0.308-1.065
				s0.012-0.717,0.125-1.05c0.113-0.332,0.286-0.638,0.519-0.914C372.043,50.979,372.337,50.75,372.694,50.568z M401.025,41.386
				l-11.322,5.784c-0.594,0.303-1.18,0.59-1.757,0.86c-0.578,0.27-1.164,0.532-1.758,0.786c-0.595,0.253-1.207,0.503-1.838,0.752
				c-0.631,0.247-1.31,0.506-2.036,0.777l-1.224-2.396c0.645-0.43,1.253-0.827,1.824-1.192c0.57-0.367,1.132-0.717,1.686-1.05
				c0.554-0.332,1.109-0.653,1.667-0.964c0.557-0.31,1.133-0.615,1.727-0.919l11.322-5.784L401.025,41.386z"/>
		</g>
	</g>
	<g>
		<path fill="#A5D6A7" d="M289.803,122.218c14.571-5.372,26.433-15.419,32.761-29.383c14.327-31.612-5.118-71.314-43.431-88.677
			c-38.313-17.363-80.985-5.811-95.312,25.802c-14.325,31.612,5.12,71.315,43.433,88.677c10.661,4.831,21.657,7.421,32.289,7.965
			c16.458,10.087,34.151,24.204,34.151,24.204S291.384,137.266,289.803,122.218z"/>
		<g>
			<path fill="#FFFFFF" stroke="#FFFFFF" stroke-miterlimit="10" d="M221.225,65.614c0.204-0.45,0.478-0.837,0.823-1.161
				c0.345-0.323,0.727-0.567,1.146-0.732c0.418-0.165,0.866-0.243,1.343-0.236c0.477,0.008,0.94,0.113,1.391,0.316
				c0.45,0.205,0.835,0.483,1.155,0.837c0.319,0.354,0.559,0.744,0.721,1.172c0.16,0.428,0.233,0.878,0.217,1.351
				c-0.017,0.473-0.126,0.935-0.33,1.385c-0.212,0.468-0.489,0.858-0.83,1.174c-0.341,0.314-0.726,0.553-1.152,0.714
				c-0.429,0.161-0.878,0.233-1.351,0.218c-0.473-0.017-0.935-0.127-1.385-0.33c-0.45-0.204-0.837-0.479-1.161-0.824
				c-0.324-0.345-0.562-0.729-0.713-1.152c-0.153-0.424-0.223-0.868-0.211-1.332C220.9,66.547,221.013,66.082,221.225,65.614z
				 M230.198,32.273c0.764-0.259,1.573-0.467,2.426-0.623c0.853-0.155,1.744-0.231,2.671-0.229c0.927,0.003,1.881,0.106,2.863,0.312
				c0.982,0.205,1.993,0.543,3.031,1.013c1.368,0.62,2.545,1.395,3.534,2.322c0.988,0.928,1.741,1.947,2.26,3.06
				c0.519,1.111,0.786,2.296,0.8,3.555s-0.273,2.536-0.861,3.835c-0.597,1.316-1.306,2.362-2.126,3.139
				c-0.821,0.775-1.693,1.387-2.616,1.834c-0.924,0.448-1.859,0.775-2.809,0.981c-0.949,0.207-1.837,0.404-2.663,0.594
				c-0.827,0.188-1.566,0.417-2.22,0.685c-0.654,0.267-1.144,0.67-1.473,1.211l-2.268,3.762l-3.168-1.437l1.643-4.452l0.13-0.286
				c0.329-0.727,0.816-1.283,1.461-1.669c0.644-0.387,1.377-0.691,2.198-0.914s1.685-0.426,2.593-0.609
				c0.907-0.184,1.795-0.438,2.663-0.765c0.868-0.327,1.67-0.782,2.404-1.368c0.735-0.585,1.338-1.397,1.809-2.436
				c0.337-0.745,0.496-1.486,0.477-2.227c-0.02-0.738-0.185-1.435-0.494-2.086c-0.311-0.652-0.756-1.246-1.338-1.78
				c-0.582-0.535-1.263-0.979-2.041-1.332c-1.057-0.479-2.02-0.759-2.891-0.841c-0.871-0.081-1.636-0.084-2.297-0.008
				c-0.66,0.076-1.21,0.172-1.647,0.286c-0.438,0.114-0.761,0.124-0.969,0.03c-0.433-0.196-0.68-0.548-0.742-1.057L230.198,32.273z"
				/>
			<path fill="#FFFFFF" stroke="#FFFFFF" stroke-miterlimit="10" d="M241.896,74.982c0.204-0.45,0.478-0.837,0.823-1.161
				c0.345-0.323,0.727-0.567,1.146-0.732c0.419-0.165,0.866-0.243,1.343-0.236c0.477,0.008,0.94,0.113,1.391,0.317
				c0.45,0.203,0.835,0.482,1.155,0.836c0.319,0.354,0.56,0.744,0.721,1.172s0.233,0.878,0.218,1.351
				c-0.017,0.473-0.126,0.935-0.33,1.385c-0.212,0.468-0.489,0.858-0.829,1.174c-0.341,0.314-0.726,0.553-1.153,0.714
				c-0.428,0.16-0.878,0.233-1.351,0.218c-0.473-0.017-0.935-0.126-1.385-0.331c-0.45-0.203-0.837-0.478-1.161-0.822
				c-0.324-0.346-0.561-0.729-0.713-1.153c-0.153-0.424-0.223-0.868-0.211-1.332C241.572,75.915,241.685,75.45,241.896,74.982z
				 M250.87,41.641c0.765-0.258,1.573-0.465,2.427-0.621c0.853-0.156,1.743-0.232,2.671-0.23c0.927,0.004,1.882,0.107,2.864,0.313
				c0.981,0.205,1.992,0.543,3.03,1.014c1.368,0.619,2.546,1.394,3.534,2.321s1.741,1.948,2.261,3.06
				c0.519,1.111,0.785,2.296,0.799,3.555c0.014,1.258-0.273,2.537-0.861,3.836c-0.597,1.315-1.306,2.361-2.126,3.137
				c-0.821,0.776-1.693,1.388-2.616,1.836c-0.923,0.447-1.859,0.774-2.809,0.98c-0.949,0.207-1.837,0.404-2.663,0.594
				c-0.826,0.188-1.566,0.416-2.22,0.684s-1.144,0.672-1.472,1.211l-2.269,3.762l-3.168-1.436l1.642-4.452l0.13-0.286
				c0.329-0.727,0.816-1.283,1.461-1.67c0.644-0.386,1.377-0.69,2.198-0.913s1.685-0.426,2.593-0.609
				c0.908-0.183,1.795-0.438,2.664-0.765c0.867-0.327,1.669-0.783,2.404-1.368c0.734-0.585,1.338-1.397,1.809-2.437
				c0.337-0.744,0.495-1.486,0.476-2.226s-0.185-1.435-0.494-2.086c-0.311-0.652-0.756-1.245-1.338-1.78s-1.263-0.979-2.041-1.332
				c-1.057-0.479-2.02-0.759-2.891-0.84c-0.871-0.082-1.636-0.085-2.297-0.009c-0.66,0.076-1.209,0.172-1.647,0.286
				s-0.761,0.125-0.968,0.03c-0.433-0.196-0.68-0.548-0.742-1.056L250.87,41.641z"/>
			<path fill="#FFFFFF" stroke="#FFFFFF" stroke-miterlimit="10" d="M262.568,84.351c0.204-0.45,0.479-0.837,0.824-1.161
				c0.345-0.323,0.726-0.567,1.146-0.732c0.419-0.165,0.866-0.243,1.343-0.236c0.477,0.008,0.94,0.113,1.391,0.316
				c0.45,0.205,0.835,0.483,1.155,0.837c0.319,0.354,0.56,0.744,0.721,1.172s0.233,0.878,0.218,1.351
				c-0.017,0.473-0.126,0.935-0.33,1.385c-0.212,0.468-0.489,0.858-0.829,1.174c-0.341,0.314-0.726,0.553-1.153,0.714
				c-0.428,0.161-0.878,0.233-1.351,0.218c-0.473-0.017-0.935-0.127-1.385-0.33c-0.45-0.204-0.837-0.479-1.161-0.824
				c-0.324-0.345-0.561-0.729-0.713-1.152c-0.153-0.424-0.223-0.868-0.211-1.332C262.245,85.283,262.356,84.818,262.568,84.351z
				 M271.542,51.01c0.764-0.259,1.573-0.467,2.426-0.623c0.854-0.155,1.743-0.231,2.671-0.229c0.927,0.003,1.882,0.106,2.864,0.312
				c0.981,0.205,1.992,0.542,3.031,1.013c1.367,0.62,2.545,1.395,3.534,2.322s1.741,1.947,2.261,3.06
				c0.519,1.111,0.785,2.296,0.799,3.555c0.014,1.259-0.273,2.536-0.861,3.835c-0.597,1.316-1.306,2.362-2.126,3.139
				c-0.821,0.775-1.693,1.387-2.616,1.834c-0.923,0.448-1.859,0.775-2.809,0.981c-0.949,0.207-1.836,0.404-2.663,0.593
				c-0.826,0.189-1.566,0.418-2.22,0.686c-0.653,0.267-1.144,0.67-1.472,1.211l-2.269,3.762l-3.168-1.437l1.642-4.452l0.13-0.286
				c0.329-0.727,0.816-1.284,1.461-1.669c0.644-0.387,1.377-0.691,2.198-0.914c0.822-0.223,1.685-0.426,2.593-0.609
				s1.795-0.438,2.664-0.765c0.867-0.327,1.669-0.782,2.404-1.368c0.734-0.585,1.338-1.397,1.809-2.436
				c0.337-0.745,0.495-1.486,0.476-2.227c-0.02-0.738-0.185-1.435-0.494-2.086c-0.31-0.652-0.756-1.246-1.337-1.78
				c-0.583-0.535-1.264-0.979-2.042-1.332c-1.057-0.479-2.02-0.759-2.891-0.841c-0.871-0.081-1.637-0.084-2.298-0.008
				c-0.659,0.076-1.209,0.172-1.647,0.286s-0.761,0.124-0.968,0.03c-0.433-0.196-0.68-0.548-0.742-1.057L271.542,51.01z"/>
		</g>
	</g>
	<g>
		<path fill="#00B0FF" d="M1270.047,84.239c6.193-6.11,9.922-13.979,9.922-22.566c0-19.441-19.101-35.202-42.662-35.202
			c-23.563,0-42.663,15.76-42.663,35.202c0,19.44,19.101,35.202,42.663,35.202c6.556,0,12.765-1.223,18.315-3.402
			c10.729,1.341,23.021,4.452,23.021,4.452S1274.333,91.551,1270.047,84.239z"/>
		<g>
			<path fill="#FFFFFF" stroke="#FFFFFF" stroke-miterlimit="10" d="M1228.641,71.234c0-0.277,0.051-0.538,0.152-0.783
				c0.1-0.244,0.238-0.457,0.414-0.639s0.387-0.324,0.631-0.432c0.246-0.105,0.506-0.159,0.783-0.159s0.537,0.054,0.783,0.159
				c0.244,0.107,0.457,0.25,0.639,0.432c0.18,0.182,0.32,0.395,0.422,0.639c0.102,0.245,0.152,0.506,0.152,0.783
				c0,0.287-0.051,0.551-0.152,0.79s-0.242,0.45-0.422,0.631c-0.182,0.181-0.395,0.322-0.639,0.423
				c-0.246,0.102-0.506,0.152-0.783,0.152s-0.537-0.051-0.783-0.152c-0.244-0.101-0.455-0.242-0.631-0.423s-0.314-0.392-0.414-0.631
				C1228.691,71.785,1228.641,71.521,1228.641,71.234z"/>
			<path fill="#FFFFFF" stroke="#FFFFFF" stroke-miterlimit="10" d="M1235.412,71.234c0-0.277,0.051-0.538,0.152-0.783
				c0.1-0.244,0.238-0.457,0.414-0.639s0.387-0.324,0.631-0.432c0.246-0.105,0.506-0.159,0.783-0.159s0.537,0.054,0.783,0.159
				c0.244,0.107,0.457,0.25,0.639,0.432c0.18,0.182,0.32,0.395,0.422,0.639c0.102,0.245,0.152,0.506,0.152,0.783
				c0,0.287-0.051,0.551-0.152,0.79s-0.242,0.45-0.422,0.631c-0.182,0.181-0.395,0.322-0.639,0.423
				c-0.246,0.102-0.506,0.152-0.783,0.152s-0.537-0.051-0.783-0.152c-0.244-0.101-0.455-0.242-0.631-0.423s-0.314-0.392-0.414-0.631
				C1235.463,71.785,1235.412,71.521,1235.412,71.234z"/>
			<path fill="#FFFFFF" stroke="#FFFFFF" stroke-miterlimit="10" d="M1242.184,71.234c0-0.277,0.051-0.538,0.152-0.783
				c0.1-0.244,0.238-0.457,0.414-0.639s0.387-0.324,0.631-0.432c0.246-0.105,0.506-0.159,0.783-0.159s0.537,0.054,0.783,0.159
				c0.244,0.107,0.457,0.25,0.639,0.432c0.18,0.182,0.32,0.395,0.422,0.639c0.102,0.245,0.152,0.506,0.152,0.783
				c0,0.287-0.051,0.551-0.152,0.79s-0.242,0.45-0.422,0.631c-0.182,0.181-0.395,0.322-0.639,0.423
				c-0.246,0.102-0.506,0.152-0.783,0.152s-0.537-0.051-0.783-0.152c-0.244-0.101-0.455-0.242-0.631-0.423s-0.314-0.392-0.414-0.631
				C1242.234,71.785,1242.184,71.521,1242.184,71.234z"/>
		</g>
	</g>
	<g>
		<path fill="#A5D6A7" d="M1082.033,27.942c-6.221-15.556-6.738-32.317-0.119-47.475c14.984-34.313,60.843-47.407,102.428-29.247
			c41.586,18.16,63.15,60.697,48.166,95.01c-14.983,34.312-60.842,47.407-102.428,29.247c-11.57-5.053-21.588-11.994-29.703-20.12
			c-19.971-5.904-44.062-9.886-44.062-9.886S1068.834,37.544,1082.033,27.942z"/>
		<g>
			<path fill="#FFFFFF" stroke="#FFFFFF" stroke-miterlimit="10" d="M1127.115,20.335c0.213-0.488,0.504-0.91,0.871-1.264
				c0.367-0.354,0.775-0.623,1.226-0.809c0.449-0.184,0.931-0.275,1.445-0.274s1.016,0.107,1.505,0.321
				c0.488,0.213,0.907,0.509,1.258,0.885c0.35,0.377,0.615,0.795,0.795,1.254s0.265,0.943,0.255,1.454
				c-0.011,0.51-0.122,1.009-0.335,1.498c-0.223,0.507-0.515,0.933-0.877,1.278c-0.364,0.345-0.775,0.607-1.233,0.787
				c-0.46,0.181-0.944,0.265-1.454,0.254c-0.51-0.01-1.01-0.121-1.498-0.335c-0.489-0.214-0.91-0.503-1.265-0.871
				c-0.354-0.367-0.616-0.777-0.787-1.233c-0.171-0.454-0.253-0.933-0.247-1.434C1126.78,21.347,1126.894,20.843,1127.115,20.335z
				 M1149.377-14.349l-7.041,16.124c-0.369,0.846-0.744,1.666-1.126,2.462c-0.381,0.796-0.778,1.59-1.19,2.383
				c-0.414,0.793-0.85,1.599-1.309,2.416c-0.457,0.818-0.956,1.691-1.495,2.619l-3.411-1.489c0.313-1.026,0.615-1.985,0.904-2.878
				c0.289-0.892,0.584-1.759,0.885-2.601c0.3-0.843,0.612-1.673,0.938-2.494c0.324-0.819,0.671-1.652,1.041-2.499l7.041-16.123
				L1149.377-14.349z"/>
			<path fill="#FFFFFF" stroke="#FFFFFF" stroke-miterlimit="10" d="M1146.451,28.779c0.214-0.489,0.504-0.91,0.871-1.265
				c0.367-0.354,0.775-0.623,1.226-0.808c0.449-0.184,0.931-0.275,1.445-0.274s1.017,0.107,1.505,0.32
				c0.488,0.214,0.907,0.51,1.258,0.886c0.35,0.377,0.615,0.795,0.796,1.253c0.179,0.46,0.265,0.944,0.254,1.455
				c-0.011,0.51-0.122,1.009-0.335,1.498c-0.223,0.507-0.515,0.933-0.877,1.277c-0.363,0.346-0.775,0.608-1.233,0.787
				c-0.459,0.182-0.944,0.266-1.454,0.255c-0.51-0.01-1.01-0.122-1.498-0.335c-0.488-0.214-0.91-0.504-1.265-0.871
				s-0.616-0.777-0.787-1.233c-0.171-0.454-0.253-0.933-0.247-1.434C1146.116,29.79,1146.23,29.286,1146.451,28.779z
				 M1168.714-5.904l-7.042,16.123c-0.369,0.847-0.744,1.667-1.125,2.462c-0.382,0.797-0.778,1.591-1.191,2.384
				c-0.414,0.792-0.85,1.599-1.308,2.416c-0.458,0.818-0.957,1.691-1.496,2.619l-3.411-1.489c0.314-1.026,0.616-1.985,0.904-2.878
				c0.289-0.892,0.584-1.759,0.885-2.601c0.301-0.843,0.613-1.674,0.938-2.494s0.672-1.652,1.041-2.499l7.041-16.124L1168.714-5.904
				z"/>
			<path fill="#FFFFFF" stroke="#FFFFFF" stroke-miterlimit="10" d="M1165.788,37.224c0.214-0.489,0.503-0.91,0.871-1.265
				c0.367-0.354,0.775-0.623,1.226-0.808c0.449-0.184,0.931-0.275,1.445-0.275c0.514,0.002,1.016,0.107,1.504,0.321
				c0.489,0.214,0.908,0.509,1.259,0.886c0.35,0.377,0.614,0.795,0.796,1.253c0.179,0.46,0.264,0.944,0.254,1.454
				c-0.011,0.51-0.123,1.01-0.336,1.498c-0.222,0.508-0.514,0.934-0.877,1.278s-0.774,0.607-1.232,0.787
				c-0.46,0.181-0.944,0.265-1.454,0.255c-0.511-0.01-1.01-0.122-1.499-0.335c-0.488-0.214-0.91-0.504-1.264-0.872
				c-0.354-0.366-0.617-0.777-0.787-1.232c-0.171-0.455-0.253-0.933-0.247-1.434S1165.566,37.73,1165.788,37.224z M1188.05,2.54
				l-7.041,16.123c-0.369,0.846-0.745,1.667-1.126,2.462c-0.381,0.796-0.777,1.591-1.191,2.384c-0.413,0.792-0.85,1.598-1.307,2.416
				c-0.458,0.818-0.957,1.691-1.496,2.619l-3.412-1.489c0.314-1.026,0.616-1.985,0.905-2.878c0.288-0.893,0.583-1.76,0.884-2.602
				s0.613-1.673,0.938-2.493c0.324-0.82,0.671-1.653,1.04-2.499l7.042-16.124L1188.05,2.54z"/>
		</g>
	</g>
	<g>
		<path fill="#4CAF50" d="M860.008,91.682c-13.958-13.771-22.363-31.508-22.363-50.865c0-43.821,43.054-79.346,96.162-79.346
			c53.109,0,96.163,35.524,96.163,79.346c0,43.82-43.054,79.346-96.163,79.346c-14.777,0-28.773-2.754-41.283-7.668
			c-24.185,3.021-51.889,10.035-51.889,10.035S850.348,108.162,860.008,91.682z"/>
		<g>
			<path fill="#FFFFFF" stroke="#FFFFFF" stroke-miterlimit="10" d="M892.24,19.347c0.744-0.696,1.566-1.355,2.467-1.98
				c0.899-0.624,1.884-1.176,2.951-1.656c1.068-0.479,2.22-0.857,3.456-1.134c1.236-0.275,2.574-0.414,4.015-0.414
				c1.896,0,3.653,0.276,5.273,0.828c1.62,0.552,3.019,1.332,4.194,2.34c1.176,1.008,2.1,2.232,2.771,3.672
				c0.672,1.44,1.009,3.06,1.009,4.86c0,1.824-0.271,3.396-0.811,4.716c-0.54,1.32-1.224,2.479-2.052,3.474
				c-0.828,0.996-1.734,1.86-2.718,2.592c-0.984,0.732-1.902,1.422-2.754,2.07c-0.853,0.648-1.584,1.296-2.196,1.944
				s-0.967,1.368-1.063,2.16l-0.647,5.508h-4.393l-0.432-5.976v-0.396c0-1.008,0.271-1.902,0.811-2.682
				c0.54-0.779,1.224-1.512,2.052-2.196s1.716-1.368,2.664-2.052c0.947-0.684,1.836-1.44,2.664-2.268
				c0.828-0.828,1.512-1.77,2.052-2.826c0.54-1.056,0.81-2.304,0.81-3.744c0-1.031-0.204-1.967-0.611-2.808
				c-0.409-0.839-0.961-1.553-1.656-2.142c-0.696-0.588-1.519-1.038-2.466-1.35c-0.948-0.312-1.962-0.468-3.042-0.468
				c-1.465,0-2.719,0.18-3.763,0.54c-1.044,0.36-1.926,0.756-2.646,1.188c-0.72,0.432-1.303,0.828-1.746,1.188
				c-0.444,0.36-0.81,0.54-1.098,0.54c-0.601,0-1.068-0.275-1.404-0.828L892.24,19.347z M899.297,62.367
				c0-0.624,0.113-1.211,0.342-1.764c0.228-0.553,0.54-1.032,0.936-1.44c0.396-0.407,0.87-0.731,1.423-0.972
				c0.552-0.24,1.139-0.36,1.764-0.36c0.624,0,1.212,0.12,1.764,0.36s1.032,0.564,1.44,0.972c0.407,0.408,0.726,0.888,0.954,1.44
				c0.228,0.553,0.342,1.14,0.342,1.764c0,0.648-0.114,1.242-0.342,1.781c-0.229,0.541-0.547,1.016-0.954,1.423
				c-0.408,0.408-0.889,0.726-1.44,0.954c-0.552,0.228-1.14,0.342-1.764,0.342c-0.625,0-1.212-0.114-1.764-0.342
				c-0.553-0.229-1.026-0.546-1.423-0.954c-0.396-0.407-0.708-0.882-0.936-1.423C899.41,63.609,899.297,63.016,899.297,62.367z"/>
			<path fill="#FFFFFF" stroke="#FFFFFF" stroke-miterlimit="10" d="M920.896,19.347c0.744-0.696,1.566-1.355,2.467-1.98
				c0.899-0.624,1.884-1.176,2.951-1.656c1.068-0.479,2.22-0.857,3.456-1.134c1.236-0.275,2.574-0.414,4.015-0.414
				c1.896,0,3.653,0.276,5.273,0.828c1.62,0.552,3.019,1.332,4.194,2.34c1.176,1.008,2.1,2.232,2.771,3.672
				c0.672,1.44,1.009,3.06,1.009,4.86c0,1.824-0.271,3.396-0.811,4.716c-0.54,1.32-1.224,2.479-2.052,3.474
				c-0.828,0.996-1.734,1.86-2.718,2.592c-0.984,0.732-1.902,1.422-2.754,2.07c-0.853,0.648-1.584,1.296-2.196,1.944
				s-0.967,1.368-1.063,2.16l-0.647,5.508h-4.393l-0.432-5.976v-0.396c0-1.008,0.271-1.902,0.811-2.682
				c0.54-0.779,1.224-1.512,2.052-2.196s1.716-1.368,2.664-2.052c0.947-0.684,1.836-1.44,2.664-2.268
				c0.828-0.828,1.512-1.77,2.052-2.826c0.54-1.056,0.81-2.304,0.81-3.744c0-1.031-0.204-1.967-0.611-2.808
				c-0.409-0.839-0.961-1.553-1.656-2.142c-0.696-0.588-1.519-1.038-2.466-1.35c-0.948-0.312-1.962-0.468-3.042-0.468
				c-1.465,0-2.719,0.18-3.763,0.54c-1.044,0.36-1.926,0.756-2.646,1.188c-0.72,0.432-1.303,0.828-1.746,1.188
				c-0.444,0.36-0.81,0.54-1.098,0.54c-0.601,0-1.068-0.275-1.404-0.828L920.896,19.347z M927.952,62.367
				c0-0.624,0.113-1.211,0.342-1.764c0.228-0.553,0.54-1.032,0.936-1.44c0.396-0.407,0.87-0.731,1.423-0.972
				c0.552-0.24,1.139-0.36,1.764-0.36c0.624,0,1.212,0.12,1.764,0.36s1.032,0.564,1.44,0.972c0.407,0.408,0.726,0.888,0.954,1.44
				c0.228,0.553,0.342,1.14,0.342,1.764c0,0.648-0.114,1.242-0.342,1.781c-0.229,0.541-0.547,1.016-0.954,1.423
				c-0.408,0.408-0.889,0.726-1.44,0.954c-0.552,0.228-1.14,0.342-1.764,0.342c-0.625,0-1.212-0.114-1.764-0.342
				c-0.553-0.229-1.026-0.546-1.423-0.954c-0.396-0.407-0.708-0.882-0.936-1.423C928.065,63.609,927.952,63.016,927.952,62.367z"/>
			<path fill="#FFFFFF" stroke="#FFFFFF" stroke-miterlimit="10" d="M949.551,19.347c0.744-0.696,1.566-1.355,2.467-1.98
				c0.899-0.624,1.884-1.176,2.951-1.656c1.068-0.479,2.22-0.857,3.456-1.134c1.236-0.275,2.574-0.414,4.015-0.414
				c1.896,0,3.653,0.276,5.273,0.828c1.62,0.552,3.019,1.332,4.194,2.34c1.176,1.008,2.1,2.232,2.771,3.672
				c0.672,1.44,1.009,3.06,1.009,4.86c0,1.824-0.271,3.396-0.811,4.716c-0.54,1.32-1.224,2.479-2.052,3.474
				c-0.828,0.996-1.734,1.86-2.718,2.592c-0.984,0.732-1.902,1.422-2.754,2.07c-0.853,0.648-1.584,1.296-2.196,1.944
				s-0.967,1.368-1.063,2.16l-0.647,5.508h-4.393l-0.432-5.976v-0.396c0-1.008,0.271-1.902,0.811-2.682
				c0.54-0.779,1.224-1.512,2.052-2.196s1.716-1.368,2.664-2.052c0.947-0.684,1.836-1.44,2.664-2.268
				c0.828-0.828,1.512-1.77,2.052-2.826c0.54-1.056,0.81-2.304,0.81-3.744c0-1.031-0.204-1.967-0.611-2.808
				c-0.409-0.839-0.961-1.553-1.656-2.142c-0.696-0.588-1.519-1.038-2.466-1.35c-0.948-0.312-1.962-0.468-3.042-0.468
				c-1.465,0-2.719,0.18-3.763,0.54c-1.044,0.36-1.926,0.756-2.646,1.188c-0.72,0.432-1.303,0.828-1.746,1.188
				c-0.444,0.36-0.81,0.54-1.098,0.54c-0.601,0-1.068-0.275-1.404-0.828L949.551,19.347z M956.607,62.367
				c0-0.624,0.113-1.211,0.342-1.764c0.228-0.553,0.54-1.032,0.936-1.44c0.396-0.407,0.87-0.731,1.423-0.972
				c0.552-0.24,1.139-0.36,1.764-0.36c0.624,0,1.212,0.12,1.764,0.36s1.032,0.564,1.44,0.972c0.407,0.408,0.726,0.888,0.954,1.44
				c0.228,0.553,0.342,1.14,0.342,1.764c0,0.648-0.114,1.242-0.342,1.781c-0.229,0.541-0.547,1.016-0.954,1.423
				c-0.408,0.408-0.889,0.726-1.44,0.954c-0.552,0.228-1.14,0.342-1.764,0.342c-0.625,0-1.212-0.114-1.764-0.342
				c-0.553-0.229-1.026-0.546-1.423-0.954c-0.396-0.407-0.708-0.882-0.936-1.423C956.721,63.609,956.607,63.016,956.607,62.367z"/>
		</g>
	</g>
	<g>
		<path fill="#40C4FF" d="M20.49,76.494C4.222,65.547-7.324,49.675-10.91,30.652c-8.118-43.063,27.609-85.948,79.798-95.788
			c52.19-9.839,101.08,17.094,109.198,60.157c8.118,43.062-27.609,85.948-79.799,95.788c-14.521,2.737-28.786,2.624-41.989,0.112
			c-23.206,7.45-49.131,19.475-49.131,19.475S14.05,94.479,20.49,76.494z"/>
		<g>
			<path fill="#FFFFFF" stroke="#FFFFFF" stroke-miterlimit="10" d="M68.366,37.671c-0.115-0.613-0.113-1.211,0.009-1.797
				c0.122-0.585,0.339-1.114,0.653-1.588c0.313-0.474,0.719-0.88,1.218-1.219c0.497-0.337,1.053-0.564,1.665-0.68
				c0.613-0.116,1.214-0.106,1.802,0.027c0.586,0.134,1.118,0.363,1.595,0.689c0.477,0.325,0.878,0.738,1.204,1.238
				s0.548,1.057,0.663,1.67c0.12,0.637,0.118,1.242-0.006,1.814c-0.125,0.573-0.35,1.098-0.674,1.574
				c-0.326,0.477-0.738,0.878-1.238,1.205c-0.501,0.326-1.058,0.547-1.671,0.662c-0.612,0.116-1.212,0.113-1.796-0.009
				c-0.586-0.122-1.11-0.346-1.574-0.674c-0.465-0.327-0.86-0.736-1.184-1.224C68.708,38.871,68.486,38.308,68.366,37.671z"/>
			<path fill="#FFFFFF" stroke="#FFFFFF" stroke-miterlimit="10" d="M83.365,34.844c-0.115-0.613-0.113-1.211,0.009-1.797
				c0.123-0.585,0.34-1.114,0.653-1.588s0.719-0.88,1.218-1.219c0.497-0.337,1.053-0.564,1.666-0.68s1.213-0.106,1.802,0.026
				c0.586,0.134,1.117,0.364,1.594,0.689c0.478,0.325,0.878,0.738,1.204,1.238s0.548,1.057,0.663,1.67
				c0.12,0.637,0.118,1.242-0.006,1.814c-0.125,0.573-0.349,1.098-0.674,1.574c-0.326,0.477-0.737,0.878-1.237,1.204
				c-0.502,0.326-1.058,0.547-1.671,0.663s-1.213,0.113-1.797-0.009c-0.585-0.122-1.11-0.346-1.574-0.674
				c-0.466-0.327-0.859-0.736-1.184-1.224C83.707,36.043,83.485,35.48,83.365,34.844z"/>
			<path fill="#FFFFFF" stroke="#FFFFFF" stroke-miterlimit="10" d="M98.364,32.016c-0.115-0.613-0.113-1.212,0.009-1.797
				c0.123-0.585,0.341-1.114,0.654-1.589c0.313-0.474,0.718-0.88,1.218-1.219c0.497-0.337,1.052-0.564,1.665-0.68
				s1.214-0.106,1.802,0.026c0.586,0.134,1.118,0.364,1.595,0.689c0.476,0.325,0.878,0.738,1.204,1.238
				c0.326,0.501,0.548,1.057,0.663,1.67c0.12,0.637,0.118,1.242-0.006,1.814c-0.125,0.573-0.349,1.098-0.674,1.574
				c-0.326,0.477-0.739,0.878-1.238,1.205c-0.501,0.326-1.058,0.547-1.671,0.663s-1.212,0.113-1.796-0.009
				c-0.587-0.122-1.11-0.347-1.574-0.675c-0.466-0.327-0.86-0.735-1.185-1.224S98.484,32.653,98.364,32.016z"/>
		</g>
	</g>
</g>
</svg>
